<svg id="Layer_1" data-name="Layer 1" xmlns="http://www.w3.org/2000/svg" viewBox="0 0 90.44 69.63"><defs><style>.cls-1{fill:#fff;}</style></defs><title>Curie Club Logo</title><path class="cls-1" d="M47.76,42.46c0-3.77,0-7.53,0-11.3a1.7,1.7,0,0,1,1-1.72c3.91-2.18,7.77-4.45,11.7-6.6a19.71,19.71,0,0,0,6.12-5,4.34,4.34,0,0,1,3.88-2,3.2,3.2,0,0,1,3,1.92,3.31,3.31,0,0,1-.63,3.68,5.8,5.8,0,0,1-3.57,1.68,16.2,16.2,0,0,0-5.36,1.64c-2.45,1.43-4.87,2.91-7.3,4.36-1.44.85-2.88,1.7-4.35,2.5a1.46,1.46,0,0,0-.84,1.42q0,10.48,0,21a1.38,1.38,0,0,0,.81,1.34c6,3.46,12.05,7,18.09,10.39a1.46,1.46,0,0,0,1.22.09c4.32-2.42,8.66-4.8,12.88-7.39A21.93,21.93,0,0,0,88,55c1-1.06,2-2.11,3.69-2a3.25,3.25,0,0,1,3.35,2.26,3.4,3.4,0,0,1-1.48,4,8.82,8.82,0,0,1-3.1,1.08c-3,.41-5.63,1.85-8.2,3.41-3.52,2.13-7.07,4.21-10.64,6.27a1.35,1.35,0,0,1-1.13,0q-10-5.68-20-11.43a1.54,1.54,0,0,0-1.84,0c-3.33,2-6.7,3.91-10.07,5.83S32,68.11,28.59,70a1.48,1.48,0,0,1-1.21-.08c-2.16-1.21-4.28-2.49-6.43-3.72-4.5-2.58-9-5.22-13.53-7.7-1.83-1-2.7-2-2.64-4.34.21-8,.06-16.07.09-24.1a1.22,1.22,0,0,1,.55-.87c2.51-1.51,5-3,7.57-4.43,2.23-1.29,4.57-2.39,6.66-3.86A32.91,32.91,0,0,0,24,16.74a4.23,4.23,0,0,1,4.61-1.28,3.11,3.11,0,0,1,2.07,3.06,3.53,3.53,0,0,1-2.3,3.34,14.15,14.15,0,0,1-2.93.81,18.3,18.3,0,0,0-6.68,2.66C15.5,27.25,12.27,29.18,9,31.07a1.16,1.16,0,0,0-.66,1.14c0,7.29,0,14.58,0,21.87a1.29,1.29,0,0,0,.78,1.25l12.09,7c2,1.16,4,2.31,6,3.5a1.35,1.35,0,0,0,1.57,0Q38,60.47,47.15,55.18a1.23,1.23,0,0,0,.62-1.25Q47.76,48.19,47.76,42.46Z" transform="translate(-4.78 -15.19)"/><path class="cls-1" d="M11.83,42.48c.79.46,1.35.85,2,1.13C17.37,45.3,21.16,45.44,25,45c2.83-.33,5.66-.75,8.51-1a66.78,66.78,0,0,1,6.93-.26,10.08,10.08,0,0,1,3.1.77,1.42,1.42,0,0,1,.71,1.06q.09,3.22,0,6.45a1.36,1.36,0,0,1-.56,1c-2.07,1.26-4.17,2.45-6.26,3.67-2.81,1.63-5.63,3.25-8.42,4.91a1.52,1.52,0,0,1-1.78,0Q20.15,57.44,13,53.36a2,2,0,0,1-1.18-2.06c.07-2.42,0-4.84,0-7.26Z" transform="translate(-4.78 -15.19)"/><path class="cls-1" d="M37.75,36.87A4.52,4.52,0,0,1,33,41.62a4.48,4.48,0,0,1-4.63-4.94,4.69,4.69,0,0,1,9.37.19Z" transform="translate(-4.78 -15.19)"/><path class="cls-1" d="M56.64,43.46c0,2.69,0,5.38,0,8.06,0,1.1-.63.9-1.27.95s-1.07-.12-1.07-1c0-5.34.05-10.69,0-16,0-.95.4-1,1.18-1s1.17.15,1.15,1.07C56.6,38.14,56.64,40.8,56.64,43.46Z" transform="translate(-4.78 -15.19)"/><path class="cls-1" d="M77.57,84.11c-.08.11-.16.34-.32.45-.47.33-.89.13-.89-.44,0-3.64,0-7.28,0-10.92,0-.6.32-.66.79-.66s.87.07.84.72c0,1,0,1.95,0,3,2.3-.82,4.17-.51,5.35,1.68a5.38,5.38,0,0,1-.61,5.49C81.52,84.81,80,85,77.57,84.11ZM78,80.28c0,.51,0,1,0,1.52,0,1.12.43,1.53,1.56,1.54,1.71,0,2.58-1,2.58-3,0-1.85-1.07-3.09-2.65-3.08h-.18A1.24,1.24,0,0,0,78,78.67C78,79.2,78,79.74,78,80.28Z" transform="translate(-4.78 -15.19)"/><path class="cls-1" d="M71.59,62.24a7.37,7.37,0,0,1-.87-1.39,1,1,0,0,1,.35-.92c1.26-.8,2.56-1.52,3.86-2.27L85,51.84a1.24,1.24,0,0,1,2,1.15c0,.25-.36.58-.64.74q-6.18,3.6-12.38,7.16C73.2,61.31,72.47,61.72,71.59,62.24Z" transform="translate(-4.78 -15.19)"/><path class="cls-1" d="M22.29,32.73A3.28,3.28,0,0,1,19,29.39,3.36,3.36,0,0,1,22.48,26a3.39,3.39,0,1,1-.19,6.77Z" transform="translate(-4.78 -15.19)"/><path class="cls-1" d="M60.21,82.2c1.12,1.09,1.1,1.33-.18,2a4.78,4.78,0,0,1-6.88-2.52A7.47,7.47,0,0,1,53.67,75a5.06,5.06,0,0,1,7-1.51l-.48,1.26-.82-.27c-2.27-.72-4,.15-4.61,2.46a8.12,8.12,0,0,0-.18,3.18C55,83.14,57.92,84.25,60.21,82.2Z" transform="translate(-4.78 -15.19)"/><path class="cls-1" d="M17.12,74.68c-.63-.16-1.11-.31-1.6-.39a3,3,0,0,0-3.47,1.6A6.14,6.14,0,0,0,12.31,82a3,3,0,0,0,4.43.48l.34-.27c1.18.85,1.16,1.3-.07,2a4.76,4.76,0,0,1-7-2.63c-.9-2.72-.77-5.39,1.39-7.59a5.35,5.35,0,0,1,5.69-.82C18.06,73.63,17.11,74.12,17.12,74.68Z" transform="translate(-4.78 -15.19)"/><path class="cls-1" d="M43.56,80.5c-.75,0-1.5,0-2.25,0s-.8.28-.65.88a2.65,2.65,0,0,0,4,1.64c.48-.23.77-.33,1.08.23s.14.71-.29.92c-1.93.9-4.55.88-5.92-1.26a5,5,0,0,1,1.18-6.35A4.06,4.06,0,0,1,45,76.38a3.33,3.33,0,0,1,1.73,3.22c0,.62-.2.94-.88.91S44.33,80.5,43.56,80.5Zm1.58-1.26c-.29-1.47-1.09-2.1-2.39-2a2,2,0,0,0-2,2Z" transform="translate(-4.78 -15.19)"/><path class="cls-1" d="M24.89,84.07a14.7,14.7,0,0,1-2.59.6,2.29,2.29,0,0,1-2.56-2.21c-.15-1.95-.1-3.93-.11-5.9,0-.66.51-.51.91-.54s.69.19.69.69c0,1.58,0,3.16,0,4.74,0,.7.11,1.41.86,1.74a1.92,1.92,0,0,0,2.17-.35,2.23,2.23,0,0,0,.65-1.36c.09-1.55.06-3.1,0-4.65,0-.64.22-.83.83-.83s.87.16.86.81c0,2.24,0,4.48,0,6.72,0,.32-.18.88-.36.92C25.73,84.57,25,84.77,24.89,84.07Z" transform="translate(-4.78 -15.19)"/><path class="cls-1" d="M72.74,84a13.43,13.43,0,0,1-2.56.63,2.37,2.37,0,0,1-2.67-2.31c-.13-1.93-.07-3.87-.07-5.81,0-.68.53-.49.91-.52s.72.13.71.65c0,1.58,0,3.16,0,4.74,0,.74.12,1.48.92,1.79a1.9,1.9,0,0,0,2.16-.41,2.25,2.25,0,0,0,.64-1.37c.08-1.55,0-3.1,0-4.65,0-.59.22-.78.79-.77s.87.13.86.79c0,2.27,0,4.54,0,6.8,0,.31-.22.83-.42.87C73.5,84.57,72.82,84.77,72.74,84Z" transform="translate(-4.78 -15.19)"/><path class="cls-1" d="M66,84.58c-1.93.24-3.07-.65-3.09-2.26,0-3,0-6,0-9,0-.62.26-.75.81-.74s.82.11.82.74c0,2.68,0,5.37,0,8.06a1.82,1.82,0,0,0,1,2C65.8,83.44,65.83,84.09,66,84.58Z" transform="translate(-4.78 -15.19)"/><path class="cls-1" d="M30.27,77a3.15,3.15,0,0,1,3.38-1c-.1,1.23-.21,1.33-1.31,1.21a2.08,2.08,0,0,0-2.06,2.14c-.07,1,0,2.08-.05,3.13,0,.47,0,.95,0,1.43s-.36.58-.77.58-.85,0-.85-.61c0-2.41,0-4.83,0-7.24a.84.84,0,0,1,.53-.61C29.69,76,30.34,75.86,30.27,77Z" transform="translate(-4.78 -15.19)"/><path class="cls-1" d="M32,23.55a2.21,2.21,0,0,1,2.27-2.34,2.26,2.26,0,0,1,2.48,2.33,2.39,2.39,0,0,1-2.33,2.33A2.29,2.29,0,0,1,32,23.55Z" transform="translate(-4.78 -15.19)"/><path class="cls-1" d="M37.11,80.37c0,1.16,0,2.32,0,3.48,0,.63-.29.74-.82.74s-.82-.11-.81-.74c0-1.88,0-3.75,0-5.63,0-.47,0-.89-.66-.91-.17,0-.46-.44-.45-.66s.33-.42.52-.62c0,0,.06,0,.09,0,2.11-.18,2.11-.18,2.11,1.94Z" transform="translate(-4.78 -15.19)"/><path class="cls-1" d="M19.58,39.35a1.93,1.93,0,0,1,1.91-2,1.91,1.91,0,0,1,2.08,2,2,2,0,0,1-2,2A2,2,0,0,1,19.58,39.35Z" transform="translate(-4.78 -15.19)"/><path class="cls-1" d="M36.15,74.88c-.25-.37-.66-.71-.72-1.11a.84.84,0,0,1,1-.93c.6,0,1,.38.92,1-.07.39-.47.72-.72,1.08Z" transform="translate(-4.78 -15.19)"/></svg>